<?xml version="1.0" encoding="UTF-8" standalone="no"?>
<svg width="30px" height="30px" viewBox="0 0 30 30" version="1.1" xmlns="http://www.w3.org/2000/svg" xmlns:xlink="http://www.w3.org/1999/xlink" xmlns:sketch="http://www.bohemiancoding.com/sketch/ns">
    <!-- Generator: Sketch 3.3.1 (12005) - http://www.bohemiancoding.com/sketch -->
    <title>picture13 copy</title>
    <desc>Created with Sketch.</desc>
    <defs></defs>
    <g id="Page-1" stroke="none" stroke-width="1" fill="none" fill-rule="evenodd" sketch:type="MSPage">
        <g id="picture13" sketch:type="MSLayerGroup" transform="translate(6.000000, 8.000000)" fill="#000000">
            <g id="Group" sketch:type="MSShapeGroup">
                <path d="M17.5327869,0.466819672 C17.2395082,0.173540984 16.887082,0.0269180328 16.4750492,0.0269180328 L1.4977377,0.0269180328 C1.08586885,0.0269180328 0.733377049,0.173508197 0.439901639,0.466819672 C0.146590164,0.760163934 0,1.11265574 0,1.52455738 L0,12.9072787 C0,13.3192787 0.146590164,13.6718033 0.439901639,13.9651148 C0.733377049,14.2584262 1.08586885,14.405082 1.4977377,14.405082 L16.4752787,14.405082 C16.887082,14.405082 17.2396066,14.2584262 17.532918,13.9651148 C17.8261967,13.6718361 17.9729836,13.3193115 17.9729836,12.9072787 L17.9729836,1.52455738 C17.9729836,1.11265574 17.8261967,0.760163934 17.5327869,0.466819672 L17.5327869,0.466819672 Z M16.7745246,12.9072787 C16.7745246,12.9885246 16.7450492,13.0585246 16.6857705,13.118 C16.6264262,13.1770164 16.5561967,13.206623 16.4750492,13.206623 L1.4977377,13.206623 C1.41665574,13.206623 1.34642623,13.1770164 1.28714754,13.118 C1.22790164,13.0585574 1.19822951,12.9885246 1.19822951,12.9072787 L1.19822951,1.52442623 C1.19822951,1.44331148 1.22780328,1.3732459 1.28714754,1.31383607 C1.34645902,1.25472131 1.41668852,1.22504918 1.4977377,1.22504918 L16.4752787,1.22504918 C16.5562951,1.22504918 16.6265246,1.25472131 16.6857705,1.31383607 C16.7448197,1.3732459 16.7745246,1.44331148 16.7745246,1.52442623 L16.7745246,12.9072787 L16.7745246,12.9072787 Z" id="Shape"></path>
                <path d="M4.19377049,6.0177377 C4.69308197,6.0177377 5.11740984,5.84308197 5.46691803,5.49357377 C5.81632787,5.14406557 5.99108197,4.71977049 5.99108197,4.22059016 C5.99108197,3.7212459 5.81622951,3.29695082 5.46691803,2.94740984 C5.11740984,2.59803279 4.69304918,2.42327869 4.19377049,2.42327869 C3.69452459,2.42327869 3.27022951,2.59803279 2.92072131,2.94740984 C2.57134426,3.29691803 2.39659016,3.72121311 2.39659016,4.22059016 C2.39659016,4.71977049 2.5712459,5.14416393 2.92072131,5.49357377 C3.27022951,5.84298361 3.69452459,6.0177377 4.19377049,6.0177377 L4.19377049,6.0177377 Z" id="Shape"></path>
                <path d="M6.88963934,8.71360656 L5.39186885,7.216 L2.39645902,10.211377 L2.39645902,12.0087541 L15.5765574,12.0087541 L15.5765574,7.81508197 L11.682459,3.92088525 L6.88963934,8.71360656 Z" id="Shape"></path>
            </g>
        </g>
    </g>
</svg>